<!-- <svg width="30" height="92" viewBox="0 0 30 92" fill="none" xmlns="http://www.w3.org/2000/svg">
<path d="M0.693182 46.4602H0.443182V46.7102H0.693182V46.4602ZM0.693182 42.0568V41.8068H0.443182V42.0568H0.693182ZM8.96733 39.571L8.78672 39.3982L8.78543 39.3995L8.96733 39.571ZM12.2699 11.4105L12.0284 11.3459L12.0278 11.3482L12.2699 11.4105ZM15.3594 5.48011L15.1744 5.31194L15.1744 5.31194L15.3594 5.48011ZM21.0412 2L21.1174 2.23811L21.1174 2.23811L21.0412 2ZM29.8125 0.863631H30.0625V0.613631H29.8125V0.863631ZM29.8125 7.82386V8.07386H30.0625V7.82386H29.8125ZM23.3139 9.10227L23.1956 8.88204L23.1942 8.8828L23.3139 9.10227ZM19.9759 13.0795L19.7413 12.9931L19.7406 12.9949L19.9759 13.0795ZM18.2713 39.1449L18.0337 39.0669L18.0327 39.0703L18.2713 39.1449ZM15.608 43.0511L15.4476 42.8594L15.4476 42.8594L15.608 43.0511ZM10.0327 45.5724L9.97316 45.3296L9.9726 45.3298L10.0327 45.5724ZM29.8125 91.7727V92.0227H30.0625V91.7727H29.8125ZM21.0412 90.6364L20.965 90.8745L20.965 90.8745L21.0412 90.6364ZM15.3594 87.1562L15.1744 87.3244L15.1744 87.3244L15.3594 87.1562ZM12.2699 81.2259L12.0278 81.2882L12.0284 81.2904L12.2699 81.2259ZM8.96733 53.0653L8.78543 53.2368L8.78673 53.2382L8.96733 53.0653ZM0.693182 50.5795H0.443182V50.8295H0.693182V50.5795ZM0.693182 46.1761V45.9261H0.443182V46.1761H0.693182ZM10.0327 47.0639L9.9726 47.3066L9.97316 47.3067L10.0327 47.0639ZM15.608 49.5852L15.7683 49.3935L15.7683 49.3935L15.608 49.5852ZM18.2713 53.4915L18.0327 53.5661L18.0338 53.5694L18.2713 53.4915ZM19.9759 79.5568L19.7406 79.6415L19.7416 79.6443L19.9759 79.5568ZM23.3139 83.4986L23.4348 83.2797L23.4336 83.2791L23.3139 83.4986ZM29.8125 84.8125H30.0625V84.5625H29.8125V84.8125ZM0.693182 50.5795H0.443182V50.8295H0.693182V50.5795ZM0.693182 42.0568V41.8068H0.443182V42.0568H0.693182ZM9.07386 42.0568H9.32386V41.8068H9.07386V42.0568ZM9.07386 50.5795V50.8295H9.32386V50.5795H9.07386ZM0.943182 46.4602V42.0568H0.443182V46.4602H0.943182ZM0.693182 42.3068C4.66817 42.3068 7.51463 41.4762 9.14923 39.7425L8.78543 39.3995C7.29503 40.9802 4.62539 41.8068 0.693182 41.8068V42.3068ZM9.14793 39.7439C10.8009 38.0169 11.5966 35.1667 11.5966 31.2614H11.0966C11.0966 35.1212 10.3061 37.8107 8.78673 39.3982L9.14793 39.7439ZM11.5966 31.2614V19.8977H11.0966V31.2614H11.5966ZM11.5966 19.8977C11.5966 16.6454 11.9031 13.8382 12.512 11.4728L12.0278 11.3482C11.4056 13.765 11.0966 16.616 11.0966 19.8977H11.5966ZM12.5114 11.4751C13.1421 9.1159 14.155 7.17656 15.5444 5.64828L15.1744 5.31194C13.7228 6.90866 12.6761 8.92292 12.0284 11.3459L12.5114 11.4751ZM15.5444 5.64828C16.9305 4.12357 18.7843 2.9847 21.1174 2.23811L20.965 1.76189C18.5633 2.53045 16.6292 3.71166 15.1744 5.31194L15.5444 5.64828ZM21.1174 2.23811C23.4525 1.49086 26.3487 1.11363 29.8125 1.11363V0.613631C26.316 0.613631 23.3647 0.993982 20.965 1.76189L21.1174 2.23811ZM29.5625 0.863631V7.82386H30.0625V0.863631H29.5625ZM29.8125 7.57386C27.0448 7.57386 24.8323 8.00261 23.1956 8.88205L23.4323 9.32249C24.9679 8.49739 27.0878 8.07386 29.8125 8.07386V7.57386ZM23.1942 8.8828C21.5743 9.76639 20.4233 11.1418 19.7413 12.9931L20.2104 13.166C20.8541 11.4188 21.9286 10.1427 23.4336 9.32174L23.1942 8.8828ZM19.7406 12.9949C19.0882 14.8071 18.767 17.1112 18.767 19.8977H19.267C19.267 17.1445 19.5851 14.9031 20.2111 13.1642L19.7406 12.9949ZM18.767 19.8977V34.1023H19.267V19.8977H18.767ZM18.767 34.1023C18.767 35.9265 18.5215 37.5806 18.0338 39.0669L18.5088 39.2228C19.0154 37.6789 19.267 35.9712 19.267 34.1023H18.767ZM18.0327 39.0703C17.5745 40.5365 16.7155 41.7989 15.4476 42.8594L15.7683 43.2429C17.1045 42.1254 18.0211 40.7836 18.5099 39.2195L18.0327 39.0703ZM15.4476 42.8594C14.1852 43.9152 12.3667 44.743 9.97316 45.3296L10.0922 45.8153C12.5281 45.2182 14.4266 44.3651 15.7683 43.2429L15.4476 42.8594ZM9.9726 45.3298C7.60887 45.9148 4.51805 46.2102 0.693182 46.2102V46.7102C4.53877 46.7102 7.67428 46.4137 10.0927 45.8151L9.9726 45.3298ZM29.8125 91.5227C26.3487 91.5227 23.4525 91.1455 21.1174 90.3983L20.965 90.8745C23.3647 91.6424 26.316 92.0227 29.8125 92.0227V91.5227ZM21.1174 90.3983C18.7843 89.6517 16.9305 88.5128 15.5444 86.9881L15.1744 87.3244C16.6292 88.9247 18.5633 90.1059 20.965 90.8745L21.1174 90.3983ZM15.5444 86.9881C14.155 85.4598 13.1421 83.5205 12.5114 81.1613L12.0284 81.2904C12.6761 83.7134 13.7228 85.7277 15.1744 87.3244L15.5444 86.9881ZM12.512 81.1635C11.9031 78.7981 11.5966 75.991 11.5966 72.7386H11.0966C11.0966 76.0204 11.4056 78.8714 12.0278 81.2882L12.512 81.1635ZM11.5966 72.7386V61.375H11.0966V72.7386H11.5966ZM11.5966 61.375C11.5966 57.4696 10.8009 54.6194 9.14793 52.8925L8.78673 53.2382C10.3061 54.8256 11.0966 57.5152 11.0966 61.375H11.5966ZM9.14923 52.8938C7.51463 51.1602 4.66817 50.3295 0.693182 50.3295V50.8295C4.62539 50.8295 7.29503 51.6561 8.78543 53.2368L9.14923 52.8938ZM0.943182 50.5795V46.1761H0.443182V50.5795H0.943182ZM0.693182 46.4261C4.51805 46.4261 7.60887 46.7215 9.9726 47.3066L10.0927 46.8212C7.67428 46.2226 4.53877 45.9261 0.693182 45.9261V46.4261ZM9.97316 47.3067C12.3667 47.8934 14.1852 48.7212 15.4476 49.777L15.7683 49.3935C14.4266 48.2713 12.5281 47.4182 10.0922 46.8211L9.97316 47.3067ZM15.4476 49.777C16.7155 50.8375 17.5745 52.0999 18.0327 53.566L18.5099 53.4169C18.0211 51.8528 17.1045 50.511 15.7683 49.3935L15.4476 49.777ZM18.0338 53.5694C18.5215 55.0558 18.767 56.7099 18.767 58.5341H19.267C19.267 56.6651 19.0154 54.9575 18.5088 53.4135L18.0338 53.5694ZM18.767 58.5341V72.7386H19.267V58.5341H18.767ZM18.767 72.7386C18.767 75.5251 19.0882 77.8292 19.7406 79.6415L20.2111 79.4721C19.5851 77.7333 19.267 75.4919 19.267 72.7386H18.767ZM19.7416 79.6443C20.4241 81.4722 21.5753 82.835 23.1942 83.7181L23.4336 83.2791C21.9275 82.4576 20.8534 81.1926 20.2101 79.4694L19.7416 79.6443ZM23.1931 83.7174C24.8305 84.6217 27.044 85.0625 29.8125 85.0625V84.5625C27.0885 84.5625 24.9697 84.1274 23.4348 83.2797L23.1931 83.7174ZM29.5625 84.8125V91.7727H30.0625V84.8125H29.5625ZM0.943182 50.5795V42.0568H0.443182V50.5795H0.943182ZM0.693182 42.3068H9.07386V41.8068H0.693182V42.3068ZM8.82386 42.0568V50.5795H9.32386V42.0568H8.82386ZM9.07386 50.3295H0.693182V50.8295H9.07386V50.3295Z" fill="#F5F5F5"/>
</svg> -->

<svg width="21" height="93.6" viewBox="0 0 21 93.6" xmlns="http://www.w3.org/2000/svg">
    <g id="svgGroup" stroke-linecap="round" fill-rule="evenodd" font-size="9pt" stroke="#f5f5f5" stroke-width="{0.5}"
        fill="#00000000" style="stroke:#f5f5f5;stroke-width:{0.5};fill:#00000000">
        <path
            d="M 21 93.6 L 18.5 93.6 Q 14.999 93.6 12.654 92.467 A 7.914 7.914 0 0 1 10.65 91.1 Q 8 88.6 8 83.4 L 8 53 A 10.786 10.786 0 0 0 7.912 51.566 Q 7.696 49.962 6.953 49.068 A 3.092 3.092 0 0 0 6.85 48.95 A 3.692 3.692 0 0 0 5.066 47.893 Q 4.473 47.73 3.766 47.705 A 7.413 7.413 0 0 0 3.5 47.7 L 0 47.7 L 0 45.8 L 3.5 45.8 A 6.448 6.448 0 0 0 4.802 45.677 Q 5.591 45.514 6.192 45.136 A 3.458 3.458 0 0 0 6.85 44.6 A 3.473 3.473 0 0 0 7.562 43.447 Q 8 42.328 8 40.6 L 8 10.2 Q 8 4.9 10.65 2.45 Q 12.772 0.488 16.529 0.097 A 19.065 19.065 0 0 1 18.5 0 L 21 0 L 21 1.9 L 17.8 1.9 Q 15.162 1.9 13.438 2.835 A 5.583 5.583 0 0 0 11.9 4.05 Q 10.303 5.857 10.048 8.972 A 15.083 15.083 0 0 0 10 10.2 L 10 40.6 A 16.398 16.398 0 0 1 9.953 41.886 Q 9.863 43.03 9.6 43.85 A 5.251 5.251 0 0 1 9.209 44.775 Q 8.887 45.363 8.433 45.771 A 3.346 3.346 0 0 1 8.4 45.8 A 5.605 5.605 0 0 1 7.54 46.412 Q 7.102 46.669 6.575 46.89 A 10.121 10.121 0 0 1 6.3 47 L 6.3 46.6 A 6.447 6.447 0 0 1 7.342 47.017 Q 7.931 47.318 8.372 47.724 A 4.036 4.036 0 0 1 8.4 47.75 A 4.149 4.149 0 0 1 9.242 48.879 A 5.583 5.583 0 0 1 9.6 49.75 A 7.241 7.241 0 0 1 9.84 50.769 Q 9.929 51.305 9.968 51.932 A 17.008 17.008 0 0 1 10 53 L 10 83.4 Q 10 86.211 10.938 88.108 A 6.546 6.546 0 0 0 11.9 89.55 A 5.897 5.897 0 0 0 14.511 91.228 Q 15.483 91.552 16.673 91.654 A 13.266 13.266 0 0 0 17.8 91.7 L 21 91.7 L 21 93.6 Z"
            vector-effect="non-scaling-stroke" />
    </g>
</svg>