<svg width="30" height="92" viewBox="0 0 30 92" fill="none" xmlns="http://www.w3.org/2000/svg">
<path d="M29.5284 46.1761H29.7784V45.9261H29.5284V46.1761ZM29.5284 50.5795V50.8295H29.7784V50.5795H29.5284ZM21.2188 53.0653L21.0381 52.8925L21.0369 52.8938L21.2188 53.0653ZM17.9162 81.2259L17.6747 81.1613L17.6741 81.1635L17.9162 81.2259ZM14.8622 87.1562L15.0472 87.3244L15.0472 87.3244L14.8622 87.1562ZM9.1804 90.6364L9.25659 90.8745L9.25659 90.8745L9.1804 90.6364ZM0.409091 91.7727H0.159091V92.0227H0.409091V91.7727ZM0.409091 84.8125V84.5625H0.159091V84.8125H0.409091ZM6.87216 83.4986L6.75381 83.2783L6.74991 83.2805L6.87216 83.4986ZM10.2102 79.5568L9.976 79.4694L9.97501 79.4721L10.2102 79.5568ZM11.9148 53.4915L11.6772 53.4135L11.6762 53.4169L11.9148 53.4915ZM14.6136 49.5852L14.4532 49.3935L14.4532 49.3935L14.6136 49.5852ZM20.1534 47.0639L20.0939 46.8211L20.0933 46.8212L20.1534 47.0639ZM0.409091 0.863631V0.613631H0.159091V0.863631H0.409091ZM9.1804 2L9.1042 2.23811L9.1042 2.23811L9.1804 2ZM14.8622 5.48011L15.0472 5.31194L15.0472 5.31194L14.8622 5.48011ZM17.9162 11.4105L17.6741 11.4728L17.6747 11.4751L17.9162 11.4105ZM21.2188 39.571L21.0368 39.7425L21.0381 39.7439L21.2188 39.571ZM29.5284 42.0568H29.7784V41.8068H29.5284V42.0568ZM29.5284 46.4602V46.7102H29.7784V46.4602H29.5284ZM20.1534 45.5724L20.0933 45.8151L20.0939 45.8153L20.1534 45.5724ZM14.6136 43.0511L14.774 42.8594L14.774 42.8594L14.6136 43.0511ZM11.9148 39.1449L11.6761 39.2195L11.6772 39.2228L11.9148 39.1449ZM10.2102 13.0795L9.97462 13.1632L9.97602 13.167L10.2102 13.0795ZM6.87216 9.10227L6.75244 9.32175L6.75383 9.32249L6.87216 9.10227ZM0.409091 7.82386H0.159091V8.07386H0.409091V7.82386ZM29.5284 42.0568H29.7784V41.8068H29.5284V42.0568ZM29.5284 50.5795V50.8295H29.7784V50.5795H29.5284ZM21.1477 50.5795H20.8977V50.8295H21.1477V50.5795ZM21.1477 42.0568V41.8068H20.8977V42.0568H21.1477ZM29.2784 46.1761V50.5795H29.7784V46.1761H29.2784ZM29.5284 50.3295C25.5529 50.3295 22.696 51.1604 21.0381 52.8925L21.3994 53.2382C22.9139 51.6559 25.5967 50.8295 29.5284 50.8295V50.3295ZM21.0369 52.8938C19.4086 54.6208 18.625 57.4704 18.625 61.375H19.125C19.125 57.5145 19.9039 54.8243 21.4006 53.2368L21.0369 52.8938ZM18.625 61.375V72.7386H19.125V61.375H18.625ZM18.625 72.7386C18.625 75.9904 18.3068 78.7967 17.6747 81.1613L18.1577 81.2904C18.804 78.8728 19.125 76.021 19.125 72.7386H18.625ZM17.6741 81.1635C17.067 83.5219 16.066 85.4604 14.6772 86.9881L15.0472 87.3244C16.4993 85.7271 17.5343 83.712 18.1583 81.2882L17.6741 81.1635ZM14.6772 86.9881C13.2911 88.5128 11.4373 89.6517 9.1042 90.3983L9.25659 90.8745C11.6583 90.1059 13.5924 88.9247 15.0472 87.3244L14.6772 86.9881ZM9.1042 90.3983C6.76907 91.1455 3.87285 91.5227 0.409091 91.5227V92.0227C3.90556 92.0227 6.85688 91.6424 9.25659 90.8745L9.1042 90.3983ZM0.659091 91.7727V84.8125H0.159091V91.7727H0.659091ZM0.409091 85.0625C3.17722 85.0625 5.37981 84.6218 6.99441 83.7166L6.74991 83.2805C5.23951 84.1272 3.13339 84.5625 0.409091 84.5625V85.0625ZM6.99049 83.7188C8.63381 82.8358 9.78644 81.4721 10.4454 79.6415L9.97501 79.4721C9.3556 81.1927 8.28285 82.4568 6.75383 83.2784L6.99049 83.7188ZM10.4444 79.6443C11.1214 77.831 11.4545 75.5258 11.4545 72.7386H10.9545C10.9545 75.4912 10.6248 77.7315 9.97602 79.4694L10.4444 79.6443ZM11.4545 72.7386V58.5341H10.9545V72.7386H11.4545ZM11.4545 58.5341C11.4545 56.7088 11.6886 55.0535 12.1534 53.566L11.6762 53.4169C11.194 54.9598 10.9545 56.6662 10.9545 58.5341H11.4545ZM12.1523 53.5694C12.634 52.1016 13.5054 50.838 14.774 49.777L14.4532 49.3935C13.1177 50.5104 12.1899 51.8511 11.6772 53.4135L12.1523 53.5694ZM14.774 49.777C16.0369 48.7208 17.8439 47.8931 20.2135 47.3066L20.0933 46.8212C17.6808 47.4184 15.7946 48.2716 14.4532 49.3935L14.774 49.777ZM20.2129 47.3067C22.6007 46.7215 25.7037 46.4261 29.5284 46.4261V45.9261C25.6827 45.9261 22.5357 46.2226 20.0939 46.8211L20.2129 47.3067ZM0.409091 1.11363C3.87285 1.11363 6.76907 1.49086 9.1042 2.23811L9.25659 1.76189C6.85688 0.993982 3.90556 0.613631 0.409091 0.613631V1.11363ZM9.1042 2.23811C11.4373 2.9847 13.2911 4.12357 14.6772 5.64828L15.0472 5.31194C13.5924 3.71166 11.6583 2.53045 9.25659 1.76189L9.1042 2.23811ZM14.6772 5.64828C16.066 7.17595 17.067 9.11446 17.6741 11.4728L18.1583 11.3482C17.5343 8.92436 16.4993 6.90927 15.0472 5.31194L14.6772 5.64828ZM17.6747 11.4751C18.3068 13.8396 18.625 16.646 18.625 19.8977H19.125C19.125 16.6154 18.804 13.7636 18.1577 11.3459L17.6747 11.4751ZM18.625 19.8977V31.2614H19.125V19.8977H18.625ZM18.625 31.2614C18.625 35.166 19.4086 38.0156 21.0369 39.7425L21.4006 39.3995C19.9039 37.8121 19.125 35.1219 19.125 31.2614H18.625ZM21.0381 39.7439C22.696 41.476 25.5529 42.3068 29.5284 42.3068V41.8068C25.5967 41.8068 22.9139 40.9805 21.3994 39.3982L21.0381 39.7439ZM29.2784 42.0568V46.4602H29.7784V42.0568H29.2784ZM29.5284 46.2102C25.7037 46.2102 22.6007 45.9149 20.2129 45.3296L20.0939 45.8153C22.5357 46.4137 25.6827 46.7102 29.5284 46.7102V46.2102ZM20.2135 45.3298C17.8439 44.7432 16.0369 43.9155 14.774 42.8594L14.4532 43.2429C15.7946 44.3648 17.6808 45.2179 20.0933 45.8151L20.2135 45.3298ZM14.774 42.8594C13.5054 41.7983 12.634 40.5348 12.1523 39.0669L11.6772 39.2228C12.1899 40.7853 13.1177 42.1259 14.4532 43.2429L14.774 42.8594ZM12.1534 39.0703C11.6886 37.5829 11.4545 35.9276 11.4545 34.1023H10.9545C10.9545 35.9701 11.194 37.6766 11.6762 39.2195L12.1534 39.0703ZM11.4545 34.1023V19.8977H10.9545V34.1023H11.4545ZM11.4545 19.8977C11.4545 17.1105 11.1214 14.8054 10.4444 12.9921L9.97602 13.167C10.6248 14.9048 10.9545 17.1452 10.9545 19.8977H11.4545ZM10.4458 12.9959C9.78719 11.142 8.63485 9.76558 6.99049 8.88205L6.75383 9.32249C8.28182 10.1435 9.35485 11.4186 9.97465 13.1632L10.4458 12.9959ZM6.99187 8.88279C5.37798 8.00249 3.17644 7.57386 0.409091 7.57386V8.07386C3.13417 8.07386 5.24134 8.4975 6.75245 9.32174L6.99187 8.88279ZM0.659091 7.82386V0.863631H0.159091V7.82386H0.659091ZM29.2784 42.0568V50.5795H29.7784V42.0568H29.2784ZM29.5284 50.3295H21.1477V50.8295H29.5284V50.3295ZM21.3977 50.5795V42.0568H20.8977V50.5795H21.3977ZM21.1477 42.3068H29.5284V41.8068H21.1477V42.3068Z" fill="#F5F5F5"/>
</svg>
